<?xml version="1.0" encoding="UTF-8" standalone="no"?>
<!DOCTYPE svg PUBLIC "-//W3C//DTD SVG 1.1//EN" "http://www.w3.org/Graphics/SVG/1.1/DTD/svg11.dtd">
<svg width="100%" height="100%" viewBox="0 0 1008 241" version="1.1" xmlns="http://www.w3.org/2000/svg" xmlns:xlink="http://www.w3.org/1999/xlink" xml:space="preserve" xmlns:serif="http://www.serif.com/" style="fill-rule:evenodd;clip-rule:evenodd;stroke-linejoin:round;stroke-miterlimit:2;">
    <rect x="-48.914" y="-35.338" width="1121.31" height="343.359"/>
    <g id="path1" transform="matrix(1,0,0,1,-85.3519,-181.196)">
        <path d="M315.318,338.335C314.573,341.101 314.401,339.494 314.575,331.378C316.01,264.251 257.149,217.797 189.369,232.561C187.782,232.907 186.445,233.25 185.268,233.489C179.698,234.621 179.735,234.93 177.187,233.775C174.023,232.342 169.792,229.462 159.886,223.212C156.414,221.022 157,220.058 159.212,218.758C170.165,212.32 200.292,207.23 225.306,211.683C288.142,222.871 330.339,282.647 315.319,338.335L315.318,338.335ZM291.072,356.082C290.554,356.044 289.252,354.65 288.18,352.998C286.231,349.993 286.231,349.993 285.505,352.493C284.477,356.036 283.898,355.533 278.47,346.393C272.599,336.504 261.642,321.875 261.056,323.142C260.822,323.646 261.447,327.701 262.445,332.152C264.821,342.745 265.707,342.99 246.55,327.749C237.363,320.44 223.898,309.787 216.627,304.075C209.357,298.363 201.152,291.907 198.396,289.728C195.639,287.549 188.043,281.657 181.515,276.635C174.987,271.613 164.563,263.57 158.351,258.761C145.419,248.75 142.981,243.653 181.857,307.906C203.722,344.043 202.779,342.496 214.032,360.693C223.882,376.62 224.916,375.982 203.028,367.486C199.434,366.09 219.918,385.23 228.275,391.075C233.869,394.987 233.869,394.987 230.061,395.129C226.252,395.263 226.252,395.263 229.59,398.125C234.955,402.71 234.004,403.13 221.858,401.542C201.113,398.831 181.794,389.134 167.022,374.019C162.317,369.204 162.166,369.367 170.952,369.786C178.467,370.143 178.467,370.143 166.62,361.216C149.107,348.019 115.227,316.596 117.006,315.198C117.644,314.698 128.749,318.662 144.82,325.128C157.881,330.383 159.715,330.759 157.422,327.712C156.213,326.104 151.367,316.768 140.333,294.792C137.816,289.778 134.738,283.73 133.493,281.35C130.579,275.782 100.857,214.958 94.62,201.8C91.999,196.272 88.629,189.268 87.13,186.235C83.701,179.302 84.366,179.378 96.936,187.363C109.422,195.294 140.946,215.668 149.064,221.054C152.359,223.239 163.973,230.925 174.873,238.134C197.503,253.101 217.452,266.507 224.119,271.228C229.764,275.225 229.589,275.438 227.553,267.055C222.87,247.767 220.147,234.998 220.537,234.157C221.703,231.639 249.221,268.527 259.368,286.211C268.491,302.111 267.706,301.505 268.533,293.293C269.371,284.96 269.585,284.886 274.423,291.216C288.63,309.803 300.715,356.886 291.072,356.082L291.072,356.082ZM213.876,421.215C123.844,428.556 61.477,334.755 107.965,261.924C114.494,251.697 114.266,251.715 118.708,261.045C120.524,264.86 122.916,269.712 124.024,271.827C126.038,275.673 126.038,275.673 122.081,283.158C91.278,341.428 131.256,410.574 200.829,419.363C208.547,420.338 214.419,421.171 213.876,421.215L213.876,421.215Z" style="fill:rgb(234,151,52);fill-rule:nonzero;"/>
    </g>
    <g id="path3" transform="matrix(0.968859,0,0,0.920768,-70.9157,-151.37)">
        <path d="M285.493,345.632C282.234,341.53 282.234,341.53 282.111,344.281C281.939,348.324 280.979,347.656 276.9,340.6C270.215,329.052 257.352,312.116 256.166,313.3C255.944,313.534 256.814,318.034 258.112,323.299C261.066,335.197 261.621,335.007 250.322,325.982C239.351,317.216 193.938,281.579 178.993,270.007C173.41,265.683 163.508,258.014 156.99,252.964C143.371,242.412 141.022,240.821 142.086,242.866C143.03,244.684 162.92,277.769 175.06,297.721C180.369,306.445 186.516,316.567 188.722,320.213C195.871,332.031 212.9,359.45 217.395,366.383C221.949,373.405 222,373.375 211.621,369.826C206.608,368.11 202.08,366.715 201.561,366.719C199.733,366.738 214.451,381.192 223.86,388.63C233.301,396.091 233.349,396.151 230.259,396.555C227.146,396.968 227.146,396.968 230.791,400.324C240.962,409.751 203.686,401.213 186.752,390.218C170.285,379.542 156.298,371.294 164.839,371.549C172.991,371.79 178.789,371.913 174.59,369.035C151.709,353.315 100.466,307.638 109.333,310.655C112.607,311.769 136.117,321.922 141.112,323.793C147.026,326.011 153.655,329.093 143.818,310.353C127.827,279.892 78.938,174.522 76.594,169.808C71.449,159.458 78.239,166.828 86.193,172.077C89.669,174.373 172.252,229.674 203.14,252.141C229.292,271.163 222.786,268.496 218.454,244.292C215.958,230.346 214.043,222.266 214.242,222.067C215.859,220.453 246.86,264.84 257.024,282.948C263.429,294.362 263.29,292.845 263.586,283.122C263.915,272.333 273.722,284.976 282.262,306.256C289.314,323.826 291.76,353.503 285.507,345.634L285.493,345.632Z" style="fill:rgb(230,74,25);fill-rule:nonzero;"/>
    </g>
    <g transform="matrix(1.15167,0,0,1.15167,-376.043,-0.54078)">
        <g transform="matrix(32,0,0,32,561.496,84.0074)">
            <path d="M0.45,-0.293L0.324,-0.625L0.204,-0.293L0.45,-0.293ZM0.668,-0L0.561,-0L0.478,-0.218L0.178,-0.218L0.099,-0L-0.001,-0L0.274,-0.716L0.376,-0.716L0.668,-0Z" style="fill:rgb(179,179,179);fill-rule:nonzero;"/>
        </g>
        <g transform="matrix(32,0,0,32,599.839,84.0074)">
            <path d="M0.08,-0.716L0.347,-0.716C0.406,-0.716 0.455,-0.71 0.494,-0.699C0.534,-0.689 0.565,-0.665 0.588,-0.629C0.611,-0.592 0.623,-0.552 0.623,-0.507C0.623,-0.435 0.6,-0.38 0.554,-0.342C0.508,-0.305 0.442,-0.286 0.355,-0.286L0.175,-0.286L0.175,-0L0.08,-0L0.08,-0.716ZM0.175,-0.371L0.356,-0.371C0.417,-0.371 0.46,-0.382 0.486,-0.405C0.512,-0.428 0.525,-0.461 0.525,-0.504C0.525,-0.533 0.518,-0.558 0.503,-0.58C0.489,-0.602 0.471,-0.616 0.449,-0.622C0.427,-0.628 0.395,-0.631 0.354,-0.631L0.175,-0.631L0.175,-0.371Z" style="fill:rgb(179,179,179);fill-rule:nonzero;"/>
        </g>
        <g transform="matrix(32,0,0,32,638.183,84.0074)">
            <path d="M0.45,-0.293L0.324,-0.625L0.204,-0.293L0.45,-0.293ZM0.668,-0L0.561,-0L0.478,-0.218L0.178,-0.218L0.099,-0L-0.001,-0L0.274,-0.716L0.376,-0.716L0.668,-0Z" style="fill:rgb(179,179,179);fill-rule:nonzero;"/>
        </g>
        <g transform="matrix(32,0,0,32,676.527,84.0074)">
            <path d="M0.38,0.012C0.279,0.012 0.198,-0.021 0.137,-0.088C0.077,-0.154 0.047,-0.244 0.047,-0.358C0.047,-0.472 0.077,-0.562 0.137,-0.628C0.198,-0.695 0.279,-0.728 0.38,-0.728C0.458,-0.728 0.524,-0.707 0.579,-0.665C0.633,-0.623 0.664,-0.568 0.671,-0.499L0.573,-0.499C0.569,-0.544 0.55,-0.58 0.514,-0.607C0.479,-0.634 0.435,-0.647 0.381,-0.647C0.308,-0.647 0.251,-0.622 0.208,-0.572C0.166,-0.522 0.145,-0.451 0.145,-0.358C0.145,-0.265 0.166,-0.194 0.208,-0.144C0.25,-0.094 0.307,-0.069 0.379,-0.069C0.435,-0.069 0.48,-0.083 0.515,-0.11C0.549,-0.137 0.569,-0.176 0.573,-0.227L0.671,-0.227C0.664,-0.151 0.634,-0.092 0.581,-0.05C0.528,-0.009 0.461,0.012 0.38,0.012Z" style="fill:rgb(179,179,179);fill-rule:nonzero;"/>
        </g>
        <g transform="matrix(32,0,0,32,716.636,84.0074)">
            <path d="M0.642,-0L0.547,-0L0.547,-0.337L0.175,-0.337L0.175,-0L0.08,-0L0.08,-0.716L0.175,-0.716L0.175,-0.422L0.547,-0.422L0.547,-0.716L0.642,-0.716L0.642,-0Z" style="fill:rgb(179,179,179);fill-rule:nonzero;"/>
        </g>
        <g transform="matrix(32,0,0,32,756.746,84.0074)">
            <path d="M0.614,-0L0.08,-0L0.08,-0.716L0.597,-0.716L0.597,-0.631L0.175,-0.631L0.175,-0.412L0.57,-0.412L0.57,-0.327L0.175,-0.327L0.175,-0.085L0.614,-0.085L0.614,-0Z" style="fill:rgb(179,179,179);fill-rule:nonzero;"/>
        </g>
    </g>
    <g id="text2" transform="matrix(1,0,0,1,-91.3519,-191.196)">
        <path d="M403.965,341.559C403.965,345.669 403.027,349.353 401.15,352.613C399.273,355.853 396.902,358.343 394.037,360.081C391.884,361.385 389.523,362.294 386.955,362.808C384.386,363.321 381.344,363.578 377.827,363.578L362.269,363.578L362.269,319.452L378.271,319.452C381.867,319.452 384.969,319.758 387.577,320.371C390.185,320.964 392.378,321.813 394.156,322.92C397.198,324.777 399.589,327.286 401.327,330.447C403.086,333.588 403.965,337.293 403.965,341.56L403.965,341.559ZM392.2,341.464C392.2,338.56 391.667,336.08 390.6,334.026C389.552,331.951 387.883,330.331 385.592,329.165C384.426,328.592 383.23,328.206 382.006,328.009C380.8,327.791 378.973,327.682 376.524,327.682L373.649,327.682L373.649,355.302L376.524,355.302C379.23,355.302 381.216,355.183 382.48,354.946C383.744,354.689 384.979,354.235 386.184,353.583C388.259,352.398 389.78,350.818 390.748,348.842C391.717,346.846 392.201,344.387 392.201,341.463L392.2,341.464ZM453.426,363.572L441.661,363.572L438.608,354.651L422.25,354.651L419.197,363.572L407.729,363.572L424.028,319.445L437.126,319.445L453.426,363.572ZM435.852,346.561L430.429,330.736L425.006,346.561L435.852,346.561ZM494.292,327.98L480.512,327.98L480.512,363.572L469.132,363.572L469.132,327.98L455.352,327.98L455.352,319.445L494.292,319.445L494.292,327.98ZM541.915,363.572L530.15,363.572L527.098,354.651L510.74,354.651L507.687,363.572L496.218,363.572L512.518,319.445L525.616,319.445L541.915,363.572ZM524.342,346.561L518.919,330.736L513.496,346.561L524.342,346.561ZM579.878,327.98L559.578,327.98L559.578,336.189L578.396,336.189L578.396,344.724L559.578,344.724L559.578,363.572L548.257,363.572L548.257,319.445L579.878,319.445L579.878,327.98ZM626.375,347.598C626.375,353.051 624.716,357.23 621.396,360.134C618.077,363.038 613.187,364.49 606.727,364.49C600.267,364.49 595.377,363.038 592.058,360.134C588.758,357.23 587.109,353.061 587.109,347.628L587.109,319.445L598.548,319.445L598.548,346.976C598.548,350.038 599.19,352.32 600.474,353.822C601.758,355.323 603.843,356.074 606.727,356.074C609.572,356.074 611.646,355.353 612.95,353.91C614.274,352.468 614.936,350.157 614.936,346.976L614.936,319.445L626.375,319.445L626.375,347.598ZM672.339,349.702C672.339,354.049 670.492,357.585 666.797,360.312C663.122,363.018 658.124,364.372 651.802,364.372C648.147,364.372 644.956,364.056 642.23,363.424C639.523,362.771 636.984,361.951 634.614,360.964L634.614,350.384L635.858,350.384C638.209,352.261 640.837,353.703 643.741,354.711C646.665,355.719 649.47,356.223 652.157,356.223C652.849,356.223 653.758,356.166 654.884,356.051C656.01,355.936 656.929,355.739 657.64,355.458C658.509,355.103 659.22,354.658 659.773,354.124C660.347,353.59 660.634,352.8 660.634,351.753C660.634,350.785 660.219,349.955 659.389,349.264C658.579,348.553 657.383,348.009 655.803,347.633C654.144,347.238 652.385,346.872 650.528,346.536C648.691,346.18 646.962,345.736 645.342,345.202C641.628,343.996 638.951,342.366 637.311,340.312C635.691,338.238 634.881,335.669 634.881,332.607C634.881,328.497 636.718,325.149 640.393,322.561C644.088,319.953 648.829,318.649 654.618,318.649C657.522,318.649 660.387,318.936 663.212,319.509C666.057,320.062 668.517,320.764 670.591,321.613L670.591,331.778L669.375,331.778C667.597,330.356 665.414,329.17 662.826,328.222C660.258,327.253 657.63,326.769 654.943,326.769C653.995,326.769 653.047,326.838 652.098,326.976C651.169,327.09 650.27,327.327 649.401,327.687C648.63,327.984 647.969,328.438 647.416,329.05C646.863,329.642 646.586,330.324 646.586,331.094C646.586,332.26 647.031,333.159 647.921,333.791C648.81,334.404 650.489,334.967 652.958,335.481C654.578,335.817 656.129,336.144 657.611,336.46C659.113,336.776 660.723,337.21 662.442,337.763C665.82,338.87 668.309,340.381 669.91,342.298C671.53,344.194 672.34,346.664 672.34,349.706L672.339,349.702ZM703.989,363.572L678.147,363.572L678.147,355.748L685.378,355.748L685.378,327.269L678.147,327.269L678.147,319.445L703.989,319.445L703.989,327.269L696.758,327.269L696.758,355.748L703.989,355.748L703.989,363.572ZM756.176,341.523C756.176,348.557 754.161,354.148 750.13,358.297C746.1,362.426 740.529,364.49 733.416,364.49C726.324,364.49 720.762,362.426 716.732,358.297C712.701,354.148 710.686,348.557 710.686,341.523C710.686,334.431 712.701,328.83 716.732,324.72C720.762,320.591 726.324,318.526 733.416,318.526C740.489,318.526 746.051,320.591 750.101,324.72C754.151,328.83 756.176,334.431 756.176,341.523ZM741.092,352.696C742.198,351.352 743.018,349.772 743.551,347.954C744.085,346.117 744.352,343.963 744.352,341.494C744.352,338.846 744.046,336.594 743.433,334.737C742.82,332.88 742.02,331.378 741.032,330.232C740.024,329.047 738.859,328.188 737.535,327.654C736.232,327.121 734.868,326.855 733.446,326.855C732.004,326.855 730.64,327.112 729.356,327.625C728.092,328.139 726.926,328.988 725.859,330.174C724.872,331.28 724.062,332.811 723.429,334.767C722.816,336.704 722.51,338.956 722.51,341.524C722.51,344.152 722.806,346.394 723.399,348.251C724.012,350.089 724.812,351.59 725.799,352.756C726.787,353.922 727.943,354.781 729.266,355.334C730.59,355.887 731.983,356.164 733.445,356.164C734.907,356.164 736.3,355.887 737.623,355.334C738.947,354.761 740.103,353.881 741.091,352.696L741.092,352.696ZM804.985,363.572L794.02,363.572L775.29,333.285L775.29,363.572L764.859,363.572L764.859,319.445L778.461,319.445L794.553,344.724L794.553,319.445L804.985,319.445L804.985,363.572ZM856.934,364.432C853.655,364.432 850.622,363.947 847.837,362.979C845.071,362.01 842.69,360.568 840.695,358.652C838.699,356.736 837.148,354.345 836.042,351.481C834.955,348.616 834.411,345.307 834.411,341.553C834.411,338.056 834.935,334.885 835.983,332.04C837.03,329.195 838.552,326.755 840.546,324.72C842.463,322.765 844.834,321.253 847.659,320.186C850.504,319.12 853.606,318.586 856.964,318.586C858.821,318.586 860.491,318.695 861.972,318.913C863.474,319.111 864.857,319.378 866.121,319.714C867.445,320.089 868.64,320.514 869.707,320.989C870.794,321.444 871.743,321.869 872.552,322.264L872.552,332.962L871.249,332.962C870.695,332.488 869.994,331.925 869.144,331.273C868.315,330.62 867.366,329.978 866.299,329.346C865.212,328.714 864.037,328.181 862.773,327.746C861.509,327.312 860.155,327.094 858.713,327.094C857.113,327.094 855.591,327.351 854.149,327.865C852.707,328.358 851.373,329.188 850.148,330.354C848.982,331.481 848.034,332.972 847.303,334.829C846.592,336.686 846.237,338.938 846.237,341.586C846.237,344.352 846.622,346.663 847.393,348.52C848.183,350.377 849.171,351.839 850.357,352.906C851.562,353.993 852.906,354.774 854.387,355.247C855.869,355.702 857.331,355.93 858.773,355.93C860.156,355.93 861.519,355.722 862.863,355.307C864.226,354.891 865.48,354.328 866.626,353.617C867.595,353.043 868.494,352.431 869.323,351.78C870.153,351.127 870.834,350.564 871.368,350.09L872.553,350.09L872.553,360.64C871.447,361.134 870.39,361.599 869.382,362.034C868.374,362.468 867.317,362.843 866.211,363.159C864.769,363.575 863.416,363.891 862.151,364.108C860.887,364.325 859.149,364.434 856.935,364.434L856.934,364.432ZM923.821,341.524C923.821,348.557 921.805,354.148 917.775,358.297C913.745,362.426 908.173,364.491 901.061,364.491C893.968,364.491 888.407,362.426 884.377,358.297C880.346,354.148 878.331,348.557 878.331,341.524C878.331,334.431 880.346,328.83 884.377,324.721C888.407,320.592 893.968,318.527 901.061,318.527C908.134,318.527 913.695,320.592 917.746,324.721C921.796,328.83 923.821,334.431 923.821,341.524ZM908.736,352.696C909.843,351.353 910.663,349.772 911.196,347.955C911.73,346.117 911.997,343.964 911.997,341.494C911.997,338.847 911.691,336.595 911.078,334.737C910.465,332.88 909.664,331.379 908.677,330.233C907.669,329.048 906.504,328.188 905.18,327.655C903.876,327.122 902.513,326.856 901.091,326.856C899.648,326.856 898.285,327.112 897.001,327.626C895.737,328.14 894.571,328.989 893.504,330.175C892.517,331.281 891.706,332.812 891.074,334.768C890.461,336.704 890.155,338.956 890.155,341.525C890.155,344.153 890.451,346.395 891.043,348.252C891.656,350.089 892.457,351.591 893.444,352.756C894.432,353.923 895.587,354.782 896.911,355.335C898.235,355.888 899.628,356.164 901.09,356.164C902.552,356.164 903.944,355.888 905.268,355.335C906.592,354.761 907.748,353.882 908.736,352.697L908.736,352.696ZM978.764,363.572L967.443,363.572L967.443,334.026L959.264,353.2L951.411,353.2L943.231,334.026L943.231,363.572L932.504,363.572L932.504,319.446L945.721,319.446L955.648,341.583L965.547,319.446L978.764,319.446L978.764,363.572ZM1021.94,363.572L990.025,363.572L990.025,319.446L1021.94,319.446L1021.94,327.981L1001.35,327.981L1001.35,335.597L1020.46,335.597L1020.46,344.132L1001.35,344.132L1001.35,355.038L1021.94,355.038L1021.94,363.572ZM1066.01,327.981L1052.23,327.981L1052.23,363.572L1040.85,363.572L1040.85,327.981L1027.07,327.981L1027.07,319.446L1066.01,319.446L1066.01,327.981Z" style="fill:white;fill-rule:nonzero;"/>
    </g>
    <g id="text3" transform="matrix(1,0,0,1,-95.3519,-190.196)">
        <path d="M1089.2,319.918L1084.49,319.918L1084.49,331.546L1082.74,331.546L1082.74,319.918L1078.03,319.918L1078.03,318.36L1089.2,318.36L1089.2,319.918ZM1102.72,331.546L1100.96,331.546L1100.96,320.184L1097.3,327.915L1096.25,327.915L1092.61,320.184L1092.61,331.546L1090.97,331.546L1090.97,318.36L1093.37,318.36L1096.88,325.701L1100.28,318.36L1102.72,318.36L1102.72,331.546Z" style="fill:white;fill-rule:nonzero;"/>
    </g>
</svg>
