<svg width="3256" height="836" viewBox="0 0 3256 836" fill="none" xmlns="http://www.w3.org/2000/svg">
<rect width="3256" height="836" fill="black"/>
<g clip-path="url(#clip0_38_119)">
<path d="M641.398 540.262C639.625 547.114 639.215 543.133 639.63 523.028C643.045 356.742 502.936 241.668 341.597 278.241C337.819 279.098 334.636 279.947 331.835 280.54C318.576 283.344 318.664 284.109 312.599 281.248C305.068 277.698 294.997 270.564 271.417 255.082C263.152 249.657 264.547 247.269 269.813 244.048C295.884 228.1 367.597 215.491 427.139 226.522C576.71 254.237 677.153 402.313 641.401 540.262H641.398ZM583.684 584.224C582.451 584.13 579.352 580.677 576.8 576.585C572.161 569.141 572.161 569.141 570.433 575.334C567.986 584.11 566.608 582.864 553.687 560.223C539.712 535.726 513.631 499.487 512.236 502.626C511.679 503.875 513.167 513.919 515.542 524.945C521.198 551.186 523.307 551.793 477.707 514.038C455.839 495.933 423.787 469.543 406.48 455.394C389.175 441.244 369.644 425.251 363.084 419.854C356.521 414.456 338.44 399.86 322.901 387.42C307.362 374.98 282.55 355.055 267.763 343.143C236.981 318.344 231.177 305.718 323.715 464.884C375.762 554.402 373.517 550.569 400.303 595.647C423.749 635.101 426.211 633.52 374.11 612.474C365.555 609.016 414.314 656.429 434.206 670.908C447.522 680.599 447.522 680.599 438.457 680.951C429.391 681.283 429.391 681.283 437.336 688.372C450.107 699.73 447.843 700.771 418.931 696.837C369.551 690.121 323.565 666.1 288.403 628.657C277.204 616.73 276.844 617.134 297.758 618.172C315.646 619.056 315.646 619.056 287.446 596.942C245.759 564.251 165.113 486.41 169.348 482.947C170.867 481.709 197.3 491.528 235.555 507.546C266.644 520.563 271.01 521.495 265.552 513.947C262.674 509.963 251.139 486.836 224.874 432.398C218.883 419.977 211.556 404.995 208.593 399.1C201.656 385.307 130.908 234.635 116.062 202.04C109.823 188.346 101.801 170.996 98.2328 163.483C90.0706 146.309 91.6535 146.497 121.574 166.277C151.295 185.924 226.333 236.394 245.657 249.736C253.5 255.148 281.145 274.188 307.091 292.046C360.958 329.122 408.444 362.331 424.313 374.026C437.75 383.927 437.334 384.455 432.487 363.688C421.34 315.909 414.859 284.278 415.787 282.194C418.563 275.957 484.065 367.335 508.218 411.141C529.934 450.528 528.065 449.027 530.034 428.685C532.029 408.042 532.538 407.859 544.054 423.54C577.872 469.583 606.638 586.216 583.684 584.224ZM399.932 745.57C185.625 763.755 37.1699 531.394 147.827 350.978C163.368 325.644 162.826 325.689 173.399 348.801C177.722 358.251 183.416 370.27 186.053 375.51C190.847 385.037 190.847 385.037 181.428 403.578C108.106 547.924 203.268 719.211 368.875 740.983C387.247 743.398 401.224 745.461 399.932 745.57Z" fill="url(#paint0_linear_38_119)"/>
<path d="M583.604 564.384C576.088 555.027 576.088 555.027 575.804 561.302C575.407 570.524 573.193 569 563.786 552.906C548.369 526.566 518.704 487.937 515.969 490.637C515.457 491.171 517.464 501.435 520.457 513.444C527.27 540.583 528.55 540.149 502.492 519.564C477.19 499.569 372.458 418.285 337.992 391.89C325.116 382.027 302.28 364.535 287.248 353.017C255.84 328.949 250.422 325.32 252.876 329.984C255.053 334.131 300.924 409.595 328.921 455.103C341.165 475.002 355.341 498.089 360.429 506.405C376.916 533.361 416.189 595.901 426.555 611.715C437.058 627.731 437.175 627.663 413.239 619.568C401.678 615.654 391.235 612.472 390.038 612.481C385.823 612.525 419.766 645.493 441.465 662.458C463.238 679.476 463.348 679.613 456.222 680.534C449.043 681.476 449.043 681.476 457.449 689.131C480.906 710.633 394.939 691.159 355.886 666.08C317.909 641.729 285.652 622.916 305.35 623.498C324.15 624.048 337.521 624.328 327.837 617.764C275.069 581.908 156.892 477.723 177.341 484.604C184.891 487.145 239.11 510.303 250.63 514.571C264.269 519.63 279.557 526.66 256.871 483.916C219.992 414.437 107.243 174.098 101.838 163.346C89.9721 139.738 105.631 156.548 123.975 168.521C131.991 173.758 322.446 299.894 393.68 351.139C453.992 394.527 438.988 388.444 428.997 333.237C423.241 301.427 418.825 282.997 419.284 282.544C423.013 278.862 494.508 380.105 517.948 421.407C532.719 447.442 532.399 443.982 533.081 421.804C533.84 397.196 556.457 426.033 576.152 474.571C592.416 514.646 598.057 582.337 583.636 564.388L583.604 564.384Z" fill="url(#paint1_linear_38_119)"/>
</g>
<path d="M927.335 736C898.649 736 871.911 730.745 847.12 720.235C822.683 709.32 801.434 693.959 783.373 674.152C765.311 654.344 751.145 631.101 740.874 604.421C730.958 577.742 726 548.435 726 516.5C726 484.565 730.958 455.258 740.874 428.579C751.145 401.899 765.311 378.656 783.373 358.848C801.788 339.041 823.215 323.882 847.651 313.372C872.088 302.457 898.826 297 927.867 297C960.094 297 989.135 303.468 1014.99 316.403C1041.2 328.935 1063.15 347.529 1080.86 372.188L1025.61 430.398C1012.86 413.824 998.697 401.495 983.114 393.41C967.531 384.921 950.532 380.677 932.116 380.677C914.763 380.677 898.826 383.911 884.306 390.378C869.786 396.846 857.213 406.144 846.589 418.271C835.964 430.398 827.642 444.748 821.621 461.322C815.955 477.895 813.121 496.288 813.121 516.5C813.121 536.712 815.955 555.104 821.621 571.678C827.642 588.252 835.964 602.602 846.589 614.729C857.213 626.856 869.786 636.154 884.306 642.622C898.826 649.089 914.763 652.323 932.116 652.323C950.532 652.323 967.531 648.281 983.114 640.196C998.697 631.707 1012.86 618.974 1025.61 601.996L1080.86 660.206C1063.15 684.864 1041.2 703.661 1014.99 716.597C989.135 729.532 959.917 736 927.335 736Z" fill="white"/>
<path d="M1363.12 736C1333.8 736 1306.6 730.543 1281.51 719.628C1256.78 708.714 1235.23 693.353 1216.86 673.546C1198.84 653.738 1184.71 630.494 1174.47 603.815C1164.58 577.135 1159.63 548.03 1159.63 516.5C1159.63 484.97 1164.58 455.865 1174.47 429.185C1184.71 402.506 1199.02 379.262 1217.39 359.454C1235.76 339.647 1257.31 324.286 1282.04 313.372C1306.77 302.457 1333.62 297 1362.59 297C1391.92 297 1418.77 302.457 1443.14 313.372C1467.87 324.286 1489.25 339.647 1507.27 359.454C1525.64 379.262 1539.95 402.506 1550.19 429.185C1560.44 455.46 1565.56 484.565 1565.56 516.5C1565.56 548.03 1560.44 577.337 1550.19 604.421C1539.95 631.101 1525.64 654.344 1507.27 674.152C1489.25 693.555 1467.87 708.714 1443.14 719.628C1418.77 730.543 1392.09 736 1363.12 736ZM1362.59 652.323C1379.2 652.323 1394.39 649.089 1408.17 642.622C1422.3 636.154 1434.67 626.856 1445.26 614.729C1455.86 602.602 1463.99 588.252 1469.64 571.678C1475.65 555.104 1478.65 536.712 1478.65 516.5C1478.65 496.288 1475.65 477.895 1469.64 461.322C1463.99 444.748 1455.86 430.398 1445.26 418.271C1435.02 406.144 1422.83 396.846 1408.7 390.378C1394.57 383.911 1379.2 380.677 1362.59 380.677C1345.99 380.677 1330.62 383.911 1316.49 390.378C1302.71 396.846 1290.52 406.144 1279.92 418.271C1269.33 430.398 1261.02 444.748 1255.02 461.322C1249.36 477.895 1246.54 496.288 1246.54 516.5C1246.54 536.308 1249.36 554.7 1255.02 571.678C1261.02 588.252 1269.15 602.602 1279.39 614.729C1289.99 626.856 1302.36 636.154 1316.49 642.622C1330.62 649.089 1345.99 652.323 1362.59 652.323Z" fill="white"/>
<path d="M1715.61 728.724V304.276H1786.49L1944.11 603.815H1906.56L2061.53 304.276H2131.88L2132.94 728.724H2052.54L2052.01 445.557H2066.82L1943.05 683.854H1904.44L1778.03 445.557H1796.01V728.724H1715.61Z" fill="white"/>
<path d="M2313.77 728.724V304.276H2591.18V383.102H2398.2V649.898H2598V728.724H2313.77ZM2391.9 551.668V475.268H2568.63V551.668H2391.9Z" fill="white"/>
<path d="M3043.37 380.987H2922.52V723.876H2845.57V380.987H2727V304H3043.37V380.987Z" fill="white"/>
<path d="M3007.94 156.524H2998.48V183.352H2992.46V156.524H2983.18V150.5H3007.94V156.524Z" fill="white"/>
<path d="M3042.92 183.352H3037.12V162.269L3028.82 178.533H3024.98L3016.69 162.269L3016.64 183.352H3011.02V150.5H3016.69L3027.13 170.564L3037.12 150.5H3042.87L3042.92 183.352Z" fill="white"/>
<path d="M796.857 224H780.379L805.486 151.273H825.301L850.372 224H833.895L815.678 167.892H815.109L796.857 224ZM795.827 195.413H834.747V207.416H795.827V195.413ZM928.126 224V151.273H956.819C962.335 151.273 967.034 152.326 970.917 154.433C974.799 156.517 977.759 159.417 979.795 163.134C981.854 166.827 982.884 171.088 982.884 175.918C982.884 180.747 981.843 185.009 979.759 188.702C977.676 192.395 974.657 195.271 970.704 197.331C966.774 199.391 962.015 200.42 956.428 200.42H938.14V188.098H953.942C956.902 188.098 959.34 187.589 961.258 186.571C963.199 185.529 964.643 184.097 965.59 182.274C966.561 180.428 967.046 178.309 967.046 175.918C967.046 173.503 966.561 171.396 965.59 169.597C964.643 167.774 963.199 166.365 961.258 165.371C959.317 164.353 956.854 163.844 953.871 163.844H943.502V224H928.126ZM1066.01 224H1049.53L1074.64 151.273H1094.45L1119.52 224H1103.05L1084.83 167.892H1084.26L1066.01 224ZM1064.98 195.413H1103.9V207.416H1064.98V195.413ZM1258.03 176.734H1242.48C1242.19 174.722 1241.61 172.935 1240.74 171.372C1239.86 169.786 1238.73 168.437 1237.36 167.324C1235.99 166.211 1234.4 165.359 1232.6 164.767C1230.83 164.175 1228.9 163.879 1226.81 163.879C1223.05 163.879 1219.77 164.814 1216.98 166.685C1214.18 168.531 1212.02 171.23 1210.48 174.781C1208.94 178.309 1208.17 182.594 1208.17 187.636C1208.17 192.821 1208.94 197.177 1210.48 200.705C1212.04 204.232 1214.22 206.895 1217.01 208.695C1219.81 210.494 1223.04 211.393 1226.71 211.393C1228.77 211.393 1230.67 211.121 1232.43 210.577C1234.2 210.032 1235.78 209.239 1237.15 208.197C1238.52 207.132 1239.66 205.842 1240.56 204.327C1241.48 202.812 1242.12 201.083 1242.48 199.142L1258.03 199.213C1257.63 202.551 1256.62 205.771 1255.01 208.872C1253.42 211.95 1251.28 214.708 1248.58 217.146C1245.91 219.561 1242.71 221.479 1239 222.899C1235.3 224.296 1231.12 224.994 1226.46 224.994C1219.97 224.994 1214.17 223.527 1209.06 220.591C1203.97 217.655 1199.94 213.406 1196.99 207.842C1194.05 202.279 1192.58 195.544 1192.58 187.636C1192.58 179.705 1194.07 172.958 1197.06 167.395C1200.04 161.831 1204.09 157.594 1209.2 154.682C1214.31 151.746 1220.07 150.278 1226.46 150.278C1230.67 150.278 1234.58 150.87 1238.18 152.054C1241.8 153.238 1245.01 154.966 1247.8 157.239C1250.6 159.488 1252.87 162.246 1254.62 165.513C1256.4 168.78 1257.53 172.52 1258.03 176.734ZM1338.06 224V151.273H1353.43V181.28H1384.65V151.273H1399.99V224H1384.65V193.957H1353.43V224H1338.06ZM1481.66 224V151.273H1530.67V163.95H1497.04V181.28H1528.15V193.957H1497.04V211.322H1530.81V224H1481.66ZM1729.82 224H1704.04V151.273H1730.03C1737.35 151.273 1743.65 152.729 1748.93 155.641C1754.21 158.529 1758.27 162.684 1761.11 168.105C1763.97 173.527 1765.4 180.013 1765.4 187.565C1765.4 195.141 1763.97 201.652 1761.11 207.097C1758.27 212.542 1754.18 216.72 1748.86 219.632C1743.55 222.544 1737.21 224 1729.82 224ZM1719.42 210.825H1729.18C1733.73 210.825 1737.55 210.02 1740.65 208.411C1743.78 206.777 1746.12 204.256 1747.68 200.847C1749.27 197.414 1750.06 192.987 1750.06 187.565C1750.06 182.191 1749.27 177.8 1747.68 174.391C1746.12 170.982 1743.79 168.472 1740.69 166.862C1737.59 165.252 1733.76 164.447 1729.22 164.447H1719.42V210.825ZM1854.23 224H1837.75L1862.86 151.273H1882.67L1907.74 224H1891.27L1873.05 167.892H1872.48L1854.23 224ZM1853.2 195.413H1892.12V207.416H1853.2V195.413ZM1973.84 163.95V151.273H2033.57V163.95H2011.3V224H1996.11V163.95H1973.84ZM2116.06 224H2099.58L2124.69 151.273H2144.5L2169.57 224H2153.09L2134.88 167.892H2134.31L2116.06 224ZM2115.03 195.413H2153.95V207.416H2115.03V195.413ZM2247.32 224V151.273H2295.48V163.95H2262.7V181.28H2292.28V193.957H2262.7V224H2247.32ZM2419.74 151.273H2435.12V198.503C2435.12 203.806 2433.85 208.446 2431.32 212.423C2428.81 216.401 2425.29 219.502 2420.77 221.727C2416.25 223.929 2410.98 225.03 2404.97 225.03C2398.93 225.03 2393.65 223.929 2389.13 221.727C2384.61 219.502 2381.09 216.401 2378.59 212.423C2376.08 208.446 2374.82 203.806 2374.82 198.503V151.273H2390.2V197.189C2390.2 199.959 2390.8 202.421 2392.01 204.575C2393.24 206.73 2394.97 208.422 2397.19 209.653C2399.42 210.884 2402.01 211.5 2404.97 211.5C2407.95 211.5 2410.55 210.884 2412.75 209.653C2414.97 208.422 2416.69 206.73 2417.9 204.575C2419.13 202.421 2419.74 199.959 2419.74 197.189V151.273ZM2556.22 172.189C2555.94 169.324 2554.72 167.099 2552.57 165.513C2550.41 163.927 2547.49 163.134 2543.79 163.134C2541.28 163.134 2539.17 163.489 2537.44 164.199C2535.71 164.885 2534.38 165.844 2533.46 167.075C2532.56 168.306 2532.11 169.703 2532.11 171.266C2532.06 172.568 2532.34 173.704 2532.93 174.675C2533.54 175.645 2534.38 176.486 2535.45 177.196C2536.51 177.883 2537.75 178.486 2539.14 179.007C2540.54 179.504 2542.03 179.93 2543.62 180.286L2550.15 181.848C2553.32 182.558 2556.24 183.505 2558.89 184.689C2561.54 185.873 2563.83 187.329 2565.78 189.057C2567.72 190.785 2569.22 192.821 2570.29 195.165C2571.37 197.509 2571.93 200.196 2571.95 203.226C2571.93 207.677 2570.79 211.536 2568.55 214.803C2566.32 218.046 2563.1 220.567 2558.89 222.366C2554.7 224.142 2549.64 225.03 2543.72 225.03C2537.85 225.03 2532.74 224.13 2528.38 222.331C2524.05 220.532 2520.66 217.868 2518.23 214.341C2515.81 210.79 2514.54 206.398 2514.43 201.166H2529.31C2529.47 203.605 2530.17 205.641 2531.4 207.274C2532.66 208.884 2534.32 210.103 2536.41 210.932C2538.52 211.737 2540.89 212.139 2543.55 212.139C2546.15 212.139 2548.41 211.76 2550.33 211.003C2552.27 210.245 2553.77 209.192 2554.84 207.842C2555.9 206.493 2556.44 204.942 2556.44 203.19C2556.44 201.557 2555.95 200.184 2554.98 199.071C2554.03 197.958 2552.64 197.011 2550.79 196.23C2548.97 195.449 2546.73 194.739 2544.08 194.099L2536.16 192.111C2530.03 190.619 2525.19 188.287 2521.64 185.115C2518.08 181.943 2516.32 177.67 2516.34 172.295C2516.32 167.892 2517.49 164.045 2519.86 160.754C2522.25 157.464 2525.53 154.895 2529.7 153.048C2533.86 151.202 2538.6 150.278 2543.9 150.278C2549.3 150.278 2554.01 151.202 2558.03 153.048C2562.08 154.895 2565.23 157.464 2567.48 160.754C2569.73 164.045 2570.89 167.857 2570.96 172.189H2556.22ZM2666.67 151.273V224H2651.3V151.273H2666.67ZM2815.16 187.636C2815.16 195.567 2813.65 202.314 2810.65 207.878C2807.66 213.441 2803.59 217.691 2798.43 220.626C2793.29 223.538 2787.52 224.994 2781.1 224.994C2774.64 224.994 2768.84 223.527 2763.7 220.591C2758.56 217.655 2754.5 213.406 2751.52 207.842C2748.54 202.279 2747.05 195.544 2747.05 187.636C2747.05 179.705 2748.54 172.958 2751.52 167.395C2754.5 161.831 2758.56 157.594 2763.7 154.682C2768.84 151.746 2774.64 150.278 2781.1 150.278C2787.52 150.278 2793.29 151.746 2798.43 154.682C2803.59 157.594 2807.66 161.831 2810.65 167.395C2813.65 172.958 2815.16 179.705 2815.16 187.636ZM2799.57 187.636C2799.57 182.499 2798.8 178.167 2797.26 174.639C2795.74 171.112 2793.6 168.437 2790.83 166.614C2788.06 164.791 2784.82 163.879 2781.1 163.879C2777.39 163.879 2774.14 164.791 2771.37 166.614C2768.6 168.437 2766.45 171.112 2764.91 174.639C2763.39 178.167 2762.64 182.499 2762.64 187.636C2762.64 192.774 2763.39 197.106 2764.91 200.634C2766.45 204.161 2768.6 206.836 2771.37 208.659C2774.14 210.482 2777.39 211.393 2781.1 211.393C2784.82 211.393 2788.06 210.482 2790.83 208.659C2793.6 206.836 2795.74 204.161 2797.26 200.634C2798.8 197.106 2799.57 192.774 2799.57 187.636ZM2956.38 151.273V224H2943.1L2911.46 178.226H2910.92V224H2895.55V151.273H2909.04L2940.43 197.011H2941.07V151.273H2956.38Z" fill="white"/>
<defs>
<linearGradient id="paint0_linear_38_119" x1="294.5" y1="179" x2="419" y2="585" gradientUnits="userSpaceOnUse">
<stop offset="0.266729" stop-color="#E64A19" stop-opacity="0.76"/>
</linearGradient>
<linearGradient id="paint1_linear_38_119" x1="297.498" y1="151" x2="344.812" y2="698.375" gradientUnits="userSpaceOnUse">
<stop offset="0.039319" stop-color="#FEE903"/>
<stop offset="0.192939" stop-color="#F89728"/>
<stop offset="0.285092" stop-color="#EA7A2E"/>
<stop offset="0.405609" stop-color="#E64A19"/>
</linearGradient>
<clipPath id="clip0_38_119">
<rect width="557" height="597" fill="white" transform="translate(94 151)"/>
</clipPath>
</defs>
</svg>
