<?xml version="1.0" encoding="UTF-8" standalone="no"?>
<!DOCTYPE svg PUBLIC "-//W3C//DTD SVG 1.1//EN" "http://www.w3.org/Graphics/SVG/1.1/DTD/svg11.dtd">
<svg width="100%" height="100%" viewBox="0 0 234 241" version="1.1" xmlns="http://www.w3.org/2000/svg" xmlns:xlink="http://www.w3.org/1999/xlink" xml:space="preserve" xmlns:serif="http://www.serif.com/" style="fill-rule:evenodd;clip-rule:evenodd;stroke-linejoin:round;stroke-miterlimit:2;">
    <g transform="matrix(1,0,0,1,-85.3518,-181.196)">
        <path d="M315.318,338.335C314.573,341.101 314.401,339.494 314.575,331.378C316.01,264.251 257.149,217.797 189.369,232.561C187.782,232.907 186.445,233.25 185.268,233.489C179.698,234.621 179.735,234.93 177.187,233.775C174.023,232.342 169.792,229.462 159.886,223.212C156.414,221.022 157,220.058 159.212,218.758C170.165,212.32 200.292,207.23 225.306,211.683C288.142,222.871 330.339,282.647 315.319,338.335L315.318,338.335ZM291.072,356.082C290.554,356.044 289.252,354.65 288.18,352.998C286.231,349.993 286.231,349.993 285.505,352.493C284.477,356.036 283.898,355.533 278.47,346.393C272.599,336.504 261.642,321.875 261.056,323.142C260.822,323.646 261.447,327.701 262.445,332.152C264.821,342.745 265.707,342.99 246.55,327.749C237.363,320.44 223.898,309.787 216.627,304.075C209.357,298.363 201.152,291.907 198.396,289.728C195.639,287.549 188.043,281.657 181.515,276.635C174.987,271.613 164.563,263.57 158.351,258.761C145.419,248.75 142.981,243.653 181.857,307.906C203.722,344.043 202.779,342.496 214.032,360.693C223.882,376.62 224.916,375.982 203.028,367.486C199.434,366.09 219.918,385.23 228.275,391.075C233.869,394.987 233.869,394.987 230.061,395.129C226.252,395.263 226.252,395.263 229.59,398.125C234.955,402.71 234.004,403.13 221.858,401.542C201.113,398.831 181.794,389.134 167.022,374.019C162.317,369.204 162.166,369.367 170.952,369.786C178.467,370.143 178.467,370.143 166.62,361.216C149.107,348.019 115.227,316.596 117.006,315.198C117.644,314.698 128.749,318.662 144.82,325.128C157.881,330.383 159.715,330.759 157.422,327.712C156.213,326.104 151.367,316.768 140.333,294.792C137.816,289.778 134.738,283.73 133.493,281.35C130.579,275.782 100.857,214.958 94.62,201.8C91.999,196.272 88.629,189.268 87.13,186.235C83.701,179.302 84.366,179.378 96.936,187.363C109.422,195.294 140.946,215.668 149.064,221.054C152.359,223.239 163.973,230.925 174.873,238.134C197.503,253.101 217.452,266.507 224.119,271.228C229.764,275.225 229.589,275.438 227.553,267.055C222.87,247.767 220.147,234.998 220.537,234.157C221.703,231.639 249.221,268.527 259.368,286.211C268.491,302.111 267.706,301.505 268.533,293.293C269.371,284.96 269.585,284.886 274.423,291.216C288.63,309.803 300.715,356.886 291.072,356.082ZM213.876,421.215C123.844,428.556 61.477,334.755 107.965,261.924C114.494,251.697 114.266,251.715 118.708,261.045C120.524,264.86 122.916,269.712 124.024,271.827C126.038,275.673 126.038,275.673 122.081,283.158C91.278,341.428 131.256,410.574 200.829,419.363C208.547,420.338 214.419,421.171 213.876,421.215Z" style="fill:rgb(31,41,55);fill-rule:nonzero;"/>
    </g>
    <g transform="matrix(0.968859,0,0,0.920768,-70.9156,-151.37)">
        <path d="M285.493,345.632C282.234,341.53 282.234,341.53 282.111,344.281C281.939,348.324 280.979,347.656 276.9,340.6C270.215,329.052 257.352,312.116 256.166,313.3C255.944,313.534 256.814,318.034 258.112,323.299C261.066,335.197 261.621,335.007 250.322,325.982C239.351,317.216 193.938,281.579 178.993,270.007C173.41,265.683 163.508,258.014 156.99,252.964C143.371,242.412 141.022,240.821 142.086,242.866C143.03,244.684 162.92,277.769 175.06,297.721C180.369,306.445 186.516,316.567 188.722,320.213C195.871,332.031 212.9,359.45 217.395,366.383C221.949,373.405 222,373.375 211.621,369.826C206.608,368.11 202.08,366.715 201.561,366.719C199.733,366.738 214.451,381.192 223.86,388.63C233.301,396.091 233.349,396.151 230.259,396.555C227.146,396.968 227.146,396.968 230.791,400.324C240.962,409.751 203.686,401.213 186.752,390.218C170.285,379.542 156.298,371.294 164.839,371.549C172.991,371.79 178.789,371.913 174.59,369.035C151.709,353.315 100.466,307.638 109.333,310.655C112.607,311.769 136.117,321.922 141.112,323.793C147.026,326.011 153.655,329.093 143.818,310.353C127.827,279.892 78.938,174.522 76.594,169.808C71.449,159.458 78.239,166.828 86.193,172.077C89.669,174.373 172.252,229.674 203.14,252.141C229.292,271.163 222.786,268.496 218.454,244.292C215.958,230.346 214.043,222.266 214.242,222.067C215.859,220.453 246.86,264.84 257.024,282.948C263.429,294.362 263.29,292.845 263.586,283.122C263.915,272.333 273.722,284.976 282.262,306.256C289.314,323.826 291.76,353.503 285.507,345.634L285.493,345.632Z" style="fill-rule:nonzero;"/>
    </g>
    <g transform="matrix(1.14457,0,0,1.14457,-1029.31,-364.027)">
        <path d="M1089.2,319.918L1084.49,319.918L1084.49,331.546L1082.74,331.546L1082.74,319.918L1078.03,319.918L1078.03,318.36L1089.2,318.36L1089.2,319.918ZM1102.72,331.546L1100.96,331.546L1100.96,320.184L1097.3,327.915L1096.25,327.915L1092.61,320.184L1092.61,331.546L1090.97,331.546L1090.97,318.36L1093.37,318.36L1096.88,325.701L1100.28,318.36L1102.72,318.36L1102.72,331.546Z" style="fill:rgb(31,41,55);fill-rule:nonzero;"/>
    </g>
</svg>
