<svg width="557" height="597" viewBox="0 0 557 597" fill="none" xmlns="http://www.w3.org/2000/svg">
<g clip-path="url(#clip0_39_157)">
<path d="M547.398 389.262C545.625 396.114 545.215 392.133 545.63 372.028C549.045 205.742 408.936 90.6676 247.597 127.241C243.819 128.098 240.636 128.947 237.835 129.54C224.576 132.344 224.664 133.109 218.599 130.248C211.068 126.698 200.997 119.564 177.417 104.082C169.152 98.6565 170.547 96.2685 175.813 93.0482C201.884 77.1001 273.597 64.4913 333.139 75.5221C482.71 103.237 583.153 251.313 547.401 389.262H547.398ZM489.684 433.224C488.451 433.13 485.352 429.677 482.8 425.585C478.161 418.141 478.161 418.141 476.433 424.334C473.986 433.11 472.608 431.864 459.687 409.223C445.712 384.726 419.631 348.487 418.236 351.626C417.679 352.875 419.167 362.919 421.542 373.945C427.198 400.186 429.307 400.793 383.707 363.038C361.839 344.933 329.787 318.543 312.48 304.394C295.175 290.244 275.644 274.251 269.084 268.854C262.521 263.456 244.44 248.86 228.901 236.42C213.362 223.98 188.55 204.055 173.763 192.143C142.981 167.344 137.177 154.718 229.715 313.884C281.762 403.402 279.517 399.569 306.303 444.647C329.749 484.101 332.211 482.52 280.11 461.474C271.555 458.016 320.314 505.429 340.206 519.908C353.522 529.599 353.522 529.599 344.457 529.951C335.391 530.283 335.391 530.283 343.336 537.372C356.107 548.73 353.843 549.771 324.931 545.837C275.551 539.121 229.565 515.1 194.403 477.657C183.204 465.73 182.844 466.134 203.758 467.172C221.646 468.056 221.646 468.056 193.446 445.942C151.759 413.251 71.1132 335.41 75.3479 331.947C76.8665 330.709 103.3 340.528 141.555 356.546C172.644 369.563 177.01 370.495 171.552 362.947C168.674 358.963 157.139 335.836 130.874 281.398C124.883 268.977 117.556 253.995 114.593 248.1C107.656 234.307 36.9077 83.6349 22.0615 51.0402C15.8227 37.3464 7.80091 19.9962 4.23278 12.4829C-3.92942 -4.69136 -2.34649 -4.50308 27.5744 15.2772C57.2954 34.9237 132.333 85.3937 151.657 98.7358C159.5 104.148 187.145 123.188 213.091 141.046C266.958 178.122 314.444 211.331 330.313 223.026C343.75 232.927 343.334 233.455 338.487 212.688C327.34 164.909 320.859 133.278 321.787 131.194C324.563 124.957 390.065 216.335 414.218 260.141C435.934 299.528 434.065 298.027 436.034 277.685C438.029 257.042 438.538 256.859 450.054 272.54C483.872 318.583 512.638 435.216 489.684 433.224ZM305.932 594.57C91.6247 612.755 -56.8301 380.394 53.8272 199.978C69.3684 174.644 68.8257 174.689 79.3992 197.801C83.7219 207.251 89.4157 219.27 92.0531 224.51C96.8471 234.037 96.8471 234.037 87.4281 252.578C14.1064 396.924 109.268 568.211 274.875 589.983C293.247 592.398 307.224 594.461 305.932 594.57Z" fill="url(#paint0_linear_39_157)"/>
<path d="M489.604 413.384C482.088 404.027 482.088 404.027 481.804 410.302C481.407 419.524 479.193 418 469.786 401.906C454.369 375.566 424.704 336.937 421.969 339.637C421.457 340.171 423.464 350.435 426.457 362.444C433.27 389.583 434.55 389.149 408.492 368.564C383.19 348.569 278.458 267.285 243.992 240.89C231.116 231.027 208.28 213.535 193.248 202.017C161.84 177.949 156.422 174.32 158.876 178.984C161.053 183.131 206.924 258.595 234.921 304.103C247.165 324.002 261.341 347.089 266.429 355.405C282.916 382.361 322.189 444.901 332.555 460.715C343.058 476.731 343.175 476.663 319.239 468.568C307.678 464.654 297.235 461.472 296.038 461.481C291.823 461.525 325.766 494.493 347.465 511.458C369.238 528.476 369.348 528.613 362.222 529.534C355.043 530.476 355.043 530.476 363.449 538.131C386.906 559.633 300.939 540.159 261.886 515.08C223.909 490.729 191.652 471.916 211.35 472.498C230.15 473.048 243.521 473.328 233.837 466.764C181.069 430.908 62.8915 326.723 83.3407 333.604C90.8913 336.145 145.11 359.303 156.63 363.571C170.269 368.63 185.557 375.66 162.871 332.916C125.992 263.437 13.2433 23.0978 7.83755 12.3456C-4.02793 -11.2618 11.6313 5.54848 29.9749 17.521C37.9913 22.7579 228.446 148.894 299.68 200.139C359.992 243.527 344.988 237.444 334.997 182.237C329.241 150.427 324.825 131.997 325.284 131.544C329.013 127.862 400.508 229.105 423.948 270.407C438.719 296.442 438.399 292.982 439.081 270.804C439.84 246.196 462.457 275.033 482.152 323.571C498.416 363.646 504.057 431.337 489.636 413.388L489.604 413.384Z" fill="url(#paint1_linear_39_157)"/>
</g>
<defs>
<linearGradient id="paint0_linear_39_157" x1="200.5" y1="28" x2="325" y2="434" gradientUnits="userSpaceOnUse">
<stop offset="0.266729" stop-color="white" stop-opacity="0.76"/>
</linearGradient>
<linearGradient id="paint1_linear_39_157" x1="203.498" y1="9.90305e-07" x2="250.812" y2="547.375" gradientUnits="userSpaceOnUse">
<stop offset="0.405609" stop-color="white"/>
</linearGradient>
<clipPath id="clip0_39_157">
<rect width="557" height="597" fill="white"/>
</clipPath>
</defs>
</svg>
